# xmcd CD database file
#
# Track frame offsets:
#	150
#	13617
#	26141
#	42689
#	58808
#	75103
#	94156
#	115167
#	131085
#
# Disc length: 1980 seconds
#
# Revision: 0
# Processed by: cddbd v1.5.2PL0 Copyright (c) Steve Scherf et al.
# Submitted via: CDex 1.70beta2
#
DISCID=7207ba09
DTITLE=Victor Velardez - Hot Burrito #1
DYEAR=2005
DGENRE=Country
TTITLE0=Women Lie
TTITLE1=Dog in Me
TTITLE2=Misery
TTITLE3=More Haggard than Merle
TTITLE4=Workin' Too Hard
TTITLE5=Lupita
TTITLE6=Hey Pedro
TTITLE7=Real Cool Radio
TTITLE8=Picker's Prayer
EXTD=YEAR: 2005
EXTT0=
EXTT1=
EXTT2=
EXTT3=
EXTT4=
EXTT5=
EXTT6=
EXTT7=
EXTT8=
PLAYORDER=
